<svg width="24" height="24" viewBox="0 0 24 24" fill="none" xmlns="http://www.w3.org/2000/svg">
<path d="M22.0718 3.95979C19.4616 1.34709 15.2154 1.34709 12.6059 3.95979L11.9998 4.56628L11.394 3.95979C8.78455 1.34674 4.53795 1.34674 1.92847 3.95979C-0.628032 6.51944 -0.644633 10.5768 1.88997 13.3977C4.2017 15.9698 11.0196 21.5265 11.3089 21.7617C11.5053 21.9215 11.7416 21.9993 11.9765 21.9993C11.9842 21.9993 11.992 21.9993 11.9994 21.999C12.2424 22.0103 12.4872 21.9268 12.6899 21.7617C12.9792 21.5265 19.7979 15.9698 22.1103 13.3974C24.6445 10.5768 24.6279 6.51944 22.0718 3.95979ZM20.535 11.9782C18.7326 13.983 13.7782 18.1178 11.9994 19.585C10.2207 18.1181 5.26732 13.9837 3.46527 11.9786C1.69712 10.0109 1.68052 7.20868 3.42677 5.46028C4.31861 4.56769 5.48984 4.12105 6.66107 4.12105C7.8323 4.12105 9.00354 4.56734 9.89538 5.46028L11.2277 6.79421C11.3863 6.953 11.5862 7.04777 11.796 7.08102C12.1365 7.15422 12.5059 7.05909 12.7708 6.79457L14.1038 5.46028C15.8879 3.67475 18.7898 3.67511 20.5728 5.46028C22.319 7.20868 22.3024 10.0109 20.535 11.9782Z" fill="black"/>
</svg>
