<svg width="20" height="20" viewBox="0 0 20 20" fill="none" xmlns="http://www.w3.org/2000/svg">
<path fill-rule="evenodd" clip-rule="evenodd" d="M3 10C3 9.61345 3.3134 9.30005 3.7 9.30005H16.3C16.6866 9.30005 17 9.61345 17 10C17 10.3866 16.6866 10.7 16.3 10.7H3.7C3.3134 10.7 3 10.3866 3 10Z" fill="#000000"/>
<path fill-rule="evenodd" clip-rule="evenodd" d="M3 15C3 14.6134 3.3134 14.3 3.7 14.3H16.3C16.6866 14.3 17 14.6134 17 15C17 15.3866 16.6866 15.7 16.3 15.7H3.7C3.3134 15.7 3 15.3866 3 15Z" fill="#000000"/>
<path fill-rule="evenodd" clip-rule="evenodd" d="M3 5.00005C3 4.61345 3.3134 4.30005 3.7 4.30005H16.3C16.6866 4.30005 17 4.61345 17 5.00005C17 5.38665 16.6866 5.70005 16.3 5.70005H3.7C3.3134 5.70005 3 5.38665 3 5.00005Z" fill="#000000"/>
</svg>
