<svg width="16" height="16" viewBox="0 0 16 16" fill="none" xmlns="http://www.w3.org/2000/svg">
<path d="M15.4592 3.15148L10.6113 7.9999L15.4592 12.8481C16.1803 13.5695 16.1803 14.738 15.4592 15.4594C15.0989 15.8197 14.6265 16 14.1544 16C13.6814 16 13.209 15.82 12.849 15.4594L8.00002 10.6107L3.15142 15.4593C2.79116 15.8196 2.31874 15.9999 1.84618 15.9999C1.37376 15.9999 0.901662 15.8199 0.541088 15.4593C-0.180015 14.7383 -0.180015 13.5697 0.541088 12.8481L5.38886 7.99986L0.540812 3.15148C-0.180291 2.43038 -0.180291 1.26156 0.540812 0.54046C1.26178 -0.180092 2.4299 -0.180092 3.15114 0.54046L7.99997 5.38888L12.8484 0.54046C13.5698 -0.180092 14.7381 -0.180092 15.4589 0.54046C16.1803 1.26156 16.1803 2.43038 15.4592 3.15148Z" fill="#858FA4"/>
</svg>
