<svg width="24" height="24" viewBox="0 0 24 24" fill="none" xmlns="http://www.w3.org/2000/svg">
<path d="M13.4471 19.105C11.5494 19.1046 9.70642 18.4694 8.21158 17.3004L3.51173 22L2 20.4883L6.69984 15.7888C5.53023 14.2938 4.89456 12.4505 4.8941 10.5525C4.8941 5.83686 8.73117 2 13.4471 2C18.1629 2 22 5.83686 22 10.5525C22 15.2681 18.1629 19.105 13.4471 19.105ZM13.4471 4.13812C9.90934 4.13812 7.03234 7.01497 7.03234 10.5525C7.03234 14.09 9.90934 16.9669 13.4471 16.9669C16.9848 16.9669 19.8618 14.09 19.8618 10.5525C19.8618 7.01497 16.9848 4.13812 13.4471 4.13812Z" fill="#858FA4" fill-opacity="0.7"/>
</svg>
